<svg xmlns="http://www.w3.org/2000/svg" viewBox="0 0 120 90" width="120" height="90"
     fill="none" stroke="#40291c" stroke-width="2.4" stroke-linecap="round" stroke-linejoin="round">
  <rect x="14" y="62" width="86" height="17" rx="3" fill="#f0c9a0"/>
  <path d="M14 70.5h86"/>
  <rect x="20" y="44" width="74" height="18" rx="3" fill="#a9cddb" transform="rotate(-1.5 57 53)"/>
  <path d="M21 53.5l73-2"/>
  <rect x="27" y="26" width="62" height="18" rx="3" fill="#f0b8c4" transform="rotate(1.8 58 35)"/>
  <path d="M28 35l61 2"/>
  <path d="M63 26c1-7 5-11 11-12"/>
  <path d="M74 14c3.5.3 5.6 2.4 6 5.5" fill="#a8cba4"/>
  <path d="M74 14c-3.2 1.4-4.6 4-4 7.2 3.4.4 6-1 7.2-4" fill="#a8cba4"/>
</svg>
